<?xml version="1.0" encoding="utf-8"?>
<!-- Generator: Adobe Illustrator 24.2.0, SVG Export Plug-In . SVG Version: 6.00 Build 0)  -->
<svg version="1.1" id="Layer_1" xmlns="http://www.w3.org/2000/svg" xmlns:xlink="http://www.w3.org/1999/xlink" x="0px" y="0px"
	 viewBox="0 0 60 60" style="enable-background:new 0 0 60 60;" xml:space="preserve">
<style type="text/css">
	.st0{clip-path:url(#SVGID_2_);fill:#232323;}
	.st1{clip-path:url(#SVGID_2_);fill:#66BEE5;}
	.st2{clip-path:url(#SVGID_2_);fill:#49C47B;}
	.st3{clip-path:url(#SVGID_2_);fill:#F0E160;}
	.st4{clip-path:url(#SVGID_2_);fill:#F17E7E;}
</style>
<g>
	<defs>
		<rect id="SVGID_1_" width="60" height="60"/>
	</defs>
	<clipPath id="SVGID_2_">
		<use xlink:href="#SVGID_1_"  style="overflow:visible;"/>
	</clipPath>
	<path class="st0" d="M50.6,32.9c0.3,0.3,0.5,0.7,0.7,1.1c0.1,0.2,0.2,0.4,0.3,0.6c0.1,0.2,0.2,0.4,0.2,0.6c0.3,0.8,0.6,1.6,0.7,2.4
		c0.2,0.8,0.2,1.7,0.1,2.5c-0.1,0.8-0.3,1.7-0.7,2.4c-0.4,0.8-1,1.4-1.6,2c-0.7,0.5-1.4,1-2.2,1.3c-0.8,0.3-1.6,0.5-2.4,0.7
		c-0.8,0.1-1.7,0.2-2.5,0.3c-3.4,0.1-6.7-0.6-9.9-1.5c-3.2-1-6.3-2.3-9.2-4c-2.9-1.6-5.7-3.5-8.3-5.7c-1.3-1.1-2.5-2.3-3.6-3.5
		c-1.1-1.3-2.2-2.6-3-4.1c-0.4-0.7-0.8-1.5-1.2-2.3C7.5,24.6,7.2,23.8,7,23c-0.2-0.9-0.3-1.8-0.3-2.7c0-0.9,0.2-1.8,0.6-2.7
		c0.4-0.8,1-1.6,1.6-2.2c0.7-0.6,1.5-1.1,2.3-1.5c0.2-0.1,0.4-0.2,0.6-0.3c0.2-0.1,0.4-0.2,0.6-0.2c0.2-0.1,0.4-0.1,0.6-0.2
		c0.2,0,0.4-0.1,0.6-0.1c0.4-0.1,0.9-0.1,1.3-0.1c0.2,0,0.4,0,0.7,0c0.2,0,0.4,0.1,0.7,0.7c-0.2,0.6-0.4,0.7-0.6,0.7
		c-0.2,0-0.4,0.1-0.6,0.1c-0.4,0.1-0.8,0.2-1.2,0.2c-0.4,0.1-0.8,0.2-1.1,0.3c-0.4,0.1-0.7,0.2-1.1,0.4c-0.7,0.3-1.4,0.7-1.9,1.1
		c-0.6,0.5-1,1.1-1.3,1.7c-0.6,1.3-0.7,2.9-0.4,4.4c0.2,0.8,0.4,1.5,0.7,2.3c0.3,0.7,0.7,1.5,1.1,2.2c0.8,1.4,1.8,2.7,2.8,3.9
		c1.1,1.2,2.2,2.4,3.4,3.5c2.4,2.2,5.1,4.1,8,5.8c2.8,1.7,5.9,3,9,4.1c3.1,1,6.4,1.7,9.7,1.7c1.6,0,3.3-0.2,4.8-0.8
		c0.8-0.3,1.5-0.7,2.1-1.2c0.6-0.5,1.2-1.1,1.6-1.8c0.4-0.7,0.6-1.5,0.7-2.3c0.1-0.8,0.1-1.6-0.1-2.4c-0.1-0.8-0.4-1.6-0.7-2.4
		c-0.1-0.2-0.2-0.4-0.2-0.6c-0.1-0.2-0.2-0.4-0.3-0.6C50.9,33.6,50.6,33.3,50.6,32.9"/>
	<path class="st1" d="M19.8,13.6c0-1.8-1.5-3.3-3.3-3.3c-1.8,0-3.3,1.5-3.3,3.3c0,1.8,1.5,3.3,3.3,3.3
		C18.3,16.9,19.8,15.4,19.8,13.6"/>
	<path class="st0" d="M22.8,10.4c0.1-0.4,0.4-0.8,0.6-1.1c0.1-0.2,0.2-0.3,0.4-0.5c0.1-0.2,0.2-0.3,0.4-0.5c0.5-0.7,1.1-1.3,1.7-1.8
		c0.6-0.6,1.4-1,2.2-1.4c0.8-0.3,1.6-0.5,2.5-0.6c0.9,0,1.7,0.2,2.5,0.5c0.8,0.3,1.5,0.8,2.2,1.3c1.3,1.1,2.4,2.5,3.2,3.9
		c1.7,2.9,2.8,6.2,3.5,9.5c0.7,3.3,1,6.7,1,10.1c0,3.4-0.3,6.8-1,10.1c-0.3,1.7-0.8,3.3-1.3,4.9c-0.6,1.6-1.2,3.2-2.1,4.7
		c-0.4,0.8-0.9,1.5-1.4,2.2c-0.5,0.7-1.1,1.4-1.8,2c-0.7,0.6-1.4,1.1-2.2,1.6c-0.8,0.4-1.7,0.7-2.7,0.8c-0.9,0.1-1.9,0-2.8-0.3
		c-0.9-0.3-1.7-0.7-2.4-1.3c-0.2-0.1-0.4-0.3-0.5-0.4c-0.2-0.1-0.3-0.3-0.5-0.5c-0.2-0.2-0.3-0.3-0.5-0.5c-0.1-0.2-0.3-0.3-0.4-0.5
		c-0.3-0.3-0.5-0.7-0.8-1.1c-0.1-0.2-0.2-0.4-0.3-0.6c-0.1-0.2-0.2-0.4,0.2-0.9c0.6-0.1,0.8,0,0.9,0.1c0.1,0.2,0.3,0.3,0.4,0.5
		c0.3,0.3,0.5,0.6,0.8,0.9c0.3,0.3,0.5,0.6,0.8,0.8c0.3,0.3,0.6,0.5,0.9,0.8c0.6,0.5,1.2,0.9,1.9,1.1c0.7,0.3,1.4,0.4,2.2,0.3
		c1.5-0.1,2.9-0.9,4-1.9c0.6-0.5,1.1-1.1,1.6-1.8c0.5-0.6,0.9-1.3,1.3-2c0.8-1.4,1.5-2.9,2-4.5c0.6-1.5,1-3.1,1.4-4.8
		c0.7-3.2,1.1-6.5,1.1-9.9c0.1-3.3-0.2-6.6-0.8-9.9c-0.6-3.3-1.6-6.5-3.2-9.4c-0.8-1.4-1.8-2.8-3-3.9c-0.6-0.5-1.3-1-2.1-1.3
		c-0.7-0.3-1.5-0.5-2.4-0.5c-0.8,0-1.6,0.2-2.4,0.5c-0.8,0.3-1.5,0.8-2.1,1.3c-0.6,0.5-1.2,1.1-1.7,1.8c-0.1,0.2-0.3,0.3-0.4,0.5
		c-0.1,0.2-0.3,0.3-0.4,0.5C23.3,9.7,23.1,10.1,22.8,10.4"/>
	<path class="st2" d="M25.9,50c0-1.8-1.5-3.3-3.3-3.3c-1.8,0-3.3,1.5-3.3,3.3c0,1.8,1.5,3.3,3.3,3.3C24.4,53.3,25.9,51.8,25.9,50"/>
	<path class="st0" d="M18.4,45.6c-0.4,0.1-0.8,0.1-1.2,0c-0.2,0-0.4,0-0.6-0.1c-0.2,0-0.4,0-0.6-0.1c-0.8-0.1-1.6-0.3-2.3-0.6
		c-1.5-0.5-2.9-1.5-3.9-2.8c-0.5-0.7-0.8-1.4-1-2.2c-0.2-0.8-0.3-1.6-0.2-2.4c0.1-1.6,0.5-3.2,1.2-4.7c0.3-0.7,0.7-1.4,1.1-2.1
		c0.4-0.7,0.8-1.4,1.3-2c0.9-1.3,2-2.5,3.1-3.7c2.2-2.3,4.8-4.3,7.5-6c2.7-1.7,5.6-3.1,8.6-4.2c3-1,6.2-1.8,9.5-1.7
		c0.8,0,1.6,0.1,2.5,0.2c0.8,0.1,1.6,0.3,2.4,0.6c1.6,0.6,3.1,1.6,4.1,3c0.5,0.7,0.9,1.5,1.1,2.4c0.2,0.8,0.3,1.7,0.3,2.6
		c0,0.2,0,0.4,0,0.6c0,0.2,0,0.4-0.1,0.6c0,0.2-0.1,0.4-0.1,0.6c-0.1,0.2-0.1,0.4-0.2,0.6c-0.1,0.4-0.3,0.8-0.4,1.2
		c-0.1,0.2-0.2,0.4-0.3,0.6c-0.1,0.2-0.2,0.4-0.9,0.3c-0.5-0.4-0.5-0.6-0.4-0.8c0.1-0.2,0.1-0.4,0.2-0.5c0.1-0.4,0.2-0.7,0.3-1.1
		c0.1-0.4,0.2-0.7,0.2-1.1c0.1-0.4,0.1-0.7,0.1-1.1c0.1-0.7,0-1.4-0.1-2.1c-0.2-0.7-0.4-1.3-0.8-1.9c-0.8-1.2-2-2-3.4-2.6
		c-0.7-0.3-1.4-0.4-2.2-0.6c-0.7-0.1-1.5-0.2-2.3-0.2c-3.1-0.1-6.2,0.6-9.1,1.5c-3,1-5.8,2.3-8.5,4c-2.7,1.6-5.2,3.5-7.4,5.7
		c-1.1,1.1-2.2,2.3-3.1,3.5c-0.5,0.6-0.9,1.3-1.3,1.9c-0.4,0.7-0.8,1.4-1.1,2.1C9.6,34.5,9.1,36,9,37.5c-0.1,1.5,0.2,3.1,1.1,4.4
		c0.4,0.6,1,1.2,1.6,1.7c0.6,0.5,1.3,0.8,2.1,1.1c0.7,0.3,1.5,0.5,2.3,0.6c0.2,0,0.4,0.1,0.6,0.1c0.2,0,0.4,0.1,0.6,0.1
		C17.6,45.5,18,45.5,18.4,45.6"/>
	<path class="st3" d="M52.5,26.4c0-1.8-1.5-3.3-3.3-3.3c-1.8,0-3.3,1.5-3.3,3.3c0,1.8,1.5,3.3,3.3,3.3
		C51.1,29.7,52.5,28.2,52.5,26.4"/>
	<path class="st4" d="M36.1,29.9c0-3.5-2.8-6.3-6.3-6.3s-6.3,2.8-6.3,6.3c0,3.5,2.8,6.3,6.3,6.3S36.1,33.4,36.1,29.9"/>
</g>
</svg>
