<?xml version="1.0" encoding="utf-8"?>
<!-- Generator: Adobe Illustrator 24.2.0, SVG Export Plug-In . SVG Version: 6.00 Build 0)  -->
<svg version="1.1" id="Layer_1" xmlns="http://www.w3.org/2000/svg" xmlns:xlink="http://www.w3.org/1999/xlink" x="0px" y="0px"
	 viewBox="0 0 240 240" style="enable-background:new 0 0 240 240;" xml:space="preserve">
<style type="text/css">
	.st0{clip-path:url(#SVGID_2_);fill:#232323;}
	.st1{clip-path:url(#SVGID_2_);fill:#66BEE5;}
	.st2{clip-path:url(#SVGID_2_);fill:#49C47B;}
	.st3{clip-path:url(#SVGID_2_);fill:#F0E160;}
	.st4{clip-path:url(#SVGID_2_);fill:#F17E7E;}
</style>
<g>
	<defs>
		<rect id="SVGID_1_" width="240" height="240"/>
	</defs>
	<clipPath id="SVGID_2_">
		<use xlink:href="#SVGID_1_"  style="overflow:visible;"/>
	</clipPath>
	<path class="st0" d="M202.2,131.4c1.2,1.2,1.9,2.8,2.7,4.2c0.4,0.7,0.7,1.5,1.1,2.3c0.3,0.8,0.7,1.5,1,2.3c1.3,3.1,2.3,6.3,3,9.6
		c0.7,3.3,0.9,6.7,0.5,10.1c-0.3,3.4-1.3,6.7-2.9,9.7c-1.6,3-3.9,5.7-6.5,7.9c-2.7,2.2-5.7,3.8-8.8,5.1c-3.2,1.3-6.4,2.2-9.8,2.7
		c-3.3,0.6-6.7,0.9-10.1,1c-13.5,0.4-26.8-2.2-39.6-6.1c-12.8-4-25.2-9.4-36.9-15.9c-11.7-6.5-22.8-14.2-33-23
		c-5.1-4.4-9.9-9.1-14.4-14.2c-4.5-5.1-8.6-10.5-12.2-16.3c-1.8-2.9-3.4-6-4.8-9.1c-1.4-3.2-2.5-6.5-3.3-9.9c-0.8-3.4-1.2-7-1-10.6
		c0.2-3.6,1-7.3,2.5-10.7c1.5-3.4,3.8-6.4,6.5-9c2.7-2.6,5.8-4.5,9.1-6c0.8-0.4,1.6-0.8,2.5-1c0.8-0.3,1.7-0.6,2.5-0.9
		c0.9-0.2,1.7-0.5,2.6-0.7c0.9-0.2,1.7-0.4,2.6-0.5c1.7-0.3,3.5-0.4,5.2-0.5c0.9,0,1.7-0.1,2.6-0.1c0.9-0.1,1.8,0.2,2.7,2.6
		c-0.7,2.5-1.5,2.9-2.3,2.9c-0.8,0.1-1.6,0.3-2.4,0.4c-1.6,0.3-3.1,0.6-4.6,1c-1.5,0.4-3,0.7-4.5,1.2c-1.5,0.4-2.9,1-4.3,1.5
		c-2.8,1.1-5.5,2.6-7.7,4.6C38,68,36.1,70.3,34.9,73c-2.6,5.3-2.7,11.6-1.4,17.7c0.6,3.1,1.6,6.1,2.8,9c1.2,2.9,2.7,5.8,4.3,8.6
		c3.2,5.6,7.1,10.8,11.4,15.8c4.2,5,8.9,9.6,13.7,14c9.8,8.8,20.6,16.4,31.9,23c11.4,6.6,23.4,12.2,35.9,16.3
		c12.5,4.1,25.6,6.9,38.7,6.7c6.5-0.1,13.1-0.9,19.2-3.2c3-1.2,5.9-2.7,8.5-4.7c2.5-2,4.7-4.4,6.3-7.3c1.6-2.8,2.5-6,2.9-9.2
		c0.4-3.2,0.2-6.5-0.3-9.7c-0.5-3.2-1.5-6.4-2.7-9.5c-0.3-0.8-0.6-1.5-0.9-2.3c-0.3-0.8-0.6-1.5-1-2.3
		C203.5,134.5,202.6,133.1,202.2,131.4"/>
	<path class="st1" d="M79.1,54.4c0-7.3-5.9-13.2-13.2-13.2c-7.3,0-13.2,5.9-13.2,13.2c0,7.3,5.9,13.2,13.2,13.2
		C73.2,67.6,79.1,61.7,79.1,54.4"/>
	<path class="st0" d="M91.3,41.6c0.5-1.7,1.5-3,2.4-4.4c0.5-0.7,0.9-1.4,1.4-2.1c0.5-0.7,1-1.4,1.5-2c2.1-2.7,4.4-5.2,7-7.4
		c2.6-2.2,5.5-4.1,8.6-5.5c3.1-1.4,6.6-2.2,10-2.2c3.5,0,6.9,0.7,10.1,2c3.2,1.3,6.1,3.2,8.8,5.4c5.3,4.4,9.4,9.9,12.9,15.7
		c6.9,11.7,11.1,24.8,13.9,38c2.8,13.2,4.1,26.7,4.1,40.2c0,13.5-1.2,27-3.9,40.3c-1.3,6.6-3.1,13.2-5.3,19.7
		c-2.2,6.4-4.9,12.8-8.3,18.8c-1.7,3-3.5,5.9-5.6,8.7c-2.1,2.8-4.4,5.4-7,7.9c-2.6,2.4-5.5,4.6-8.8,6.2c-3.2,1.7-6.9,2.8-10.6,3.2
		c-3.7,0.4-7.5-0.2-11.1-1.3c-3.6-1.1-6.9-2.9-9.8-5.1c-0.7-0.5-1.5-1.1-2.1-1.7c-0.7-0.6-1.4-1.2-2-1.8c-0.6-0.6-1.3-1.3-1.8-1.9
		c-0.6-0.7-1.2-1.3-1.7-2c-1.1-1.4-2.1-2.8-3-4.3c-0.4-0.8-0.9-1.5-1.3-2.3c-0.5-0.7-0.7-1.7,1-3.6c2.5-0.6,3.3-0.1,3.7,0.6
		c0.5,0.6,1,1.2,1.5,1.9c1,1.2,2,2.5,3.1,3.6c1.1,1.2,2.1,2.3,3.3,3.4c1.1,1.1,2.3,2.1,3.4,3.1c2.4,1.9,5,3.5,7.8,4.5
		c2.8,1,5.7,1.5,8.7,1.2c5.9-0.4,11.5-3.5,16.2-7.7c2.3-2.1,4.5-4.5,6.5-7c2-2.5,3.8-5.2,5.4-8.1c3.3-5.6,5.9-11.6,8.2-17.8
		c2.2-6.2,4-12.6,5.5-19c2.8-12.9,4.3-26.2,4.5-39.4c0.2-13.3-0.8-26.6-3.3-39.6c-2.5-13-6.4-25.9-12.9-37.4
		c-3.3-5.7-7.2-11.2-12.1-15.4c-2.5-2.1-5.2-4-8.2-5.2c-3-1.3-6.2-2-9.4-2c-3.2,0-6.5,0.7-9.5,2c-3,1.3-5.8,3-8.4,5.1
		c-2.6,2.1-4.9,4.5-7,7c-0.5,0.6-1,1.3-1.5,2c-0.5,0.7-1,1.3-1.5,2C93.3,38.9,92.5,40.4,91.3,41.6"/>
	<path class="st2" d="M103.6,200c0-7.3-5.9-13.2-13.2-13.2c-7.3,0-13.2,5.9-13.2,13.2c0,7.3,5.9,13.2,13.2,13.2
		C97.7,213.2,103.6,207.3,103.6,200"/>
	<path class="st0" d="M73.5,182.5c-1.6,0.4-3.2,0.3-4.8,0.1c-0.8,0-1.6-0.1-2.4-0.2c-0.8-0.1-1.6-0.2-2.4-0.3
		c-3.2-0.5-6.3-1.2-9.3-2.2c-6-2.1-11.7-5.9-15.4-11.3c-1.8-2.7-3.2-5.7-4-8.9c-0.8-3.2-1.1-6.4-0.9-9.7c0.3-6.5,2.2-12.8,4.7-18.7
		c1.3-3,2.8-5.8,4.4-8.6c1.7-2.7,3.4-5.5,5.3-8c3.7-5.2,7.9-10.1,12.4-14.6C70,91,80.2,83,91,76.1c10.8-6.8,22.4-12.6,34.5-16.8
		c12.1-4.2,24.9-7,38-7c3.3,0.1,6.6,0.3,9.8,0.8c3.3,0.5,6.5,1.3,9.7,2.4c6.3,2.2,12.4,6.3,16.4,12.1c2,2.9,3.5,6.2,4.4,9.6
		c0.9,3.4,1.2,6.9,1.1,10.3c0,0.9-0.1,1.7-0.2,2.6c-0.1,0.8-0.2,1.7-0.4,2.5c-0.2,0.8-0.3,1.7-0.5,2.5c-0.2,0.8-0.4,1.6-0.7,2.4
		c-0.5,1.6-1.1,3.2-1.8,4.7c-0.3,0.8-0.7,1.5-1.1,2.2c-0.3,0.8-0.9,1.4-3.5,1.1c-1.9-1.7-2-2.5-1.6-3.2c0.2-0.7,0.4-1.5,0.7-2.2
		c0.4-1.5,0.8-2.9,1.1-4.4c0.3-1.4,0.7-2.9,0.9-4.3c0.3-1.4,0.4-2.9,0.6-4.3c0.2-2.9,0.1-5.8-0.5-8.5c-0.6-2.8-1.7-5.4-3.3-7.7
		c-3.1-4.7-8-8.2-13.5-10.3c-2.8-1-5.7-1.8-8.7-2.3c-3-0.5-6-0.8-9.1-0.9c-12.3-0.3-24.7,2.2-36.5,6.1c-11.9,3.9-23.2,9.3-34,15.8
		c-10.7,6.5-20.8,14.1-29.8,22.9c-4.5,4.4-8.7,9.1-12.4,14.1c-1.9,2.5-3.6,5.1-5.3,7.7c-1.6,2.7-3.2,5.4-4.4,8.2
		c-2.6,5.6-4.5,11.7-4.9,17.9c-0.4,6.2,0.9,12.5,4.3,17.6c1.7,2.6,3.9,4.8,6.4,6.6c2.5,1.8,5.3,3.3,8.2,4.4c2.9,1.1,6,1.9,9.1,2.4
		c0.8,0.2,1.6,0.3,2.3,0.4c0.8,0.1,1.6,0.2,2.3,0.3C70.3,182,71.9,182,73.5,182.5"/>
	<path class="st3" d="M210.1,105.6c0-7.3-5.9-13.2-13.2-13.2c-7.3,0-13.2,5.9-13.2,13.2c0,7.3,5.9,13.2,13.2,13.2
		C204.2,118.8,210.1,112.9,210.1,105.6"/>
	<path class="st4" d="M144.5,119.8c0-14-11.3-25.3-25.3-25.3s-25.3,11.3-25.3,25.3c0,14,11.3,25.3,25.3,25.3
		S144.5,133.8,144.5,119.8"/>
</g>
</svg>
